<svg width="32" height="12" viewBox="0 0 32 12" fill="none" xmlns="http://www.w3.org/2000/svg">
<path fill-rule="evenodd" clip-rule="evenodd" d="M25.2896 0.709992C24.8996 1.09999 24.8996 1.72999 25.2896 2.11999L28.1696 5H3.82852L6.70852 2.12001C7.09852 1.73001 7.09852 1.10001 6.70852 0.710008C6.31852 0.320008 5.68852 0.320007 5.29852 0.710007L0.708516 5.30001C0.318516 5.69001 0.318516 6.32001 0.708516 6.71001L5.29852 11.3C5.67852 11.68 6.31852 11.68 6.70852 11.29C7.09852 10.9 7.09852 10.27 6.70852 9.88001L3.82851 7H28.1696L25.2896 9.87999C24.8996 10.27 24.8996 10.9 25.2896 11.29C25.6796 11.68 26.3096 11.68 26.6996 11.29L31.2896 6.69999C31.6796 6.30999 31.6796 5.67999 31.2896 5.28999L26.6996 0.699991C26.3196 0.319991 25.6796 0.319992 25.2896 0.709992Z" fill="#1E352F"/>
</svg>
