<svg width="48" height="24" viewBox="0 0 48 24" fill="#4D7267" xmlns="http://www.w3.org/2000/svg">
<path d="M33.2901 6.71002C32.9001 7.10002 32.9001 7.73002 33.2901 8.12002L37.1701 12L33.2901 15.88C32.9001 16.27 32.9001 16.9 33.2901 17.29C33.6801 17.68 34.3101 17.68 34.7001 17.29L39.2901 12.7C39.6801 12.31 39.6801 11.68 39.2901 11.29L34.7001 6.70002C34.3201 6.32002 33.6801 6.32002 33.2901 6.71002Z" />
<path d="M14.7099 17.29C15.0999 16.9 15.0999 16.27 14.7099 15.88L10.8299 12L14.7099 8.11998C15.0999 7.72998 15.0999 7.09998 14.7099 6.70998C14.3199 6.31998 13.6899 6.31998 13.2999 6.70998L8.70994 11.3C8.31994 11.69 8.31994 12.32 8.70994 12.71L13.2999 17.3C13.6799 17.68 14.3199 17.68 14.7099 17.29Z" />
<rect x="10" y="11" width="28" height="2"/>
</svg>
