<svg width="150" height="113" viewBox="0 0 150 113" fill="none" xmlns="http://www.w3.org/2000/svg">
    <g clip-path="url(#clip0_1415_4252)">
        <path d="M109.53 106.522H106.545L105.125 95.0098H109.53V106.522Z" fill="#9E616A"/>
        <path d="M111.105 111.693H108.965L108.583 109.672L107.604 111.693H101.928C101.655 111.693 101.39 111.606 101.171 111.445C100.952 111.283 100.79 111.056 100.709 110.796C100.628 110.537 100.632 110.258 100.721 110.001C100.81 109.743 100.978 109.521 101.202 109.367L105.736 106.236V104.193L110.504 104.477L111.105 111.693Z" fill="#2F2E41"/>
        <path d="M127.261 102.755L124.866 104.536L116.856 96.1457L120.391 93.5171L127.261 102.755Z" fill="#9E616A"/>
        <path d="M131.611 105.965L129.894 107.242L128.381 105.848L128.802 108.054L124.247 111.441C124.028 111.604 123.764 111.692 123.492 111.693C123.219 111.695 122.954 111.609 122.734 111.449C122.514 111.289 122.351 111.063 122.269 110.803C122.186 110.544 122.189 110.265 122.277 110.007L124.046 104.79L122.827 103.151L126.823 100.534L131.611 105.965Z" fill="#2F2E41"/>
        <path d="M113.005 47.1265C113.005 47.1265 118.668 52.0189 116.055 65.9659L112.865 79.6316L123.268 96.8895L119.951 100.925L106.427 82.245L101.526 70.7496L100.151 50.2902L113.005 47.1265Z" fill="#2F2E41"/>
        <path d="M104.227 74.0254L103.887 79.3003L104.929 101.779L109.834 100.924L110.771 84.9202L104.227 74.0254Z" fill="#2F2E41"/>
        <path d="M41.2855 109.228L43.9546 109.228L45.2242 98.9331L41.2852 98.9333L41.2855 109.228Z" fill="#FFB6B6"/>
        <path d="M40.6045 108.357L41.3557 108.357L44.2888 107.164L45.8608 108.357H45.861C46.7494 108.357 47.6013 108.71 48.2295 109.338C48.8577 109.966 49.2107 110.818 49.2107 111.706V111.815L40.6046 111.816L40.6045 108.357Z" fill="#2F2E41"/>
        <path d="M51.6279 107.547L54.2313 108.134L57.7376 98.372L53.8952 97.5044L51.6279 107.547Z" fill="#FFB6B6"/>
        <path d="M51.1562 106.546L51.889 106.712L55.0128 106.194L56.2835 107.704L56.2837 107.704C57.1502 107.9 57.9035 108.432 58.3779 109.183C58.8523 109.934 59.0089 110.843 58.8133 111.709L58.7893 111.815L50.3945 109.92L51.1562 106.546Z" fill="#2F2E41"/>
        <path d="M37.9048 46.291C36.6534 50.0651 36.7857 54.1619 38.2056 58.5587L38.8125 83.3143C38.8125 83.3143 37.9082 99.5486 40.8263 105.261H45.0583L47.1537 81.8318L47.4168 66.1058L56.4899 79.3732L50.711 104.878L55.9196 105.344L65.2972 77.665L53.7271 50.8117L37.9048 46.291Z" fill="#2F2E41"/>
        <path d="M86.7098 35.5406C89.9468 32.6236 94.7616 31.1569 98.8003 32.7926C94.6574 35.0927 91.4617 38.784 89.7784 43.2136C89.1355 44.9242 88.5985 46.8938 87.017 47.8096C86.033 48.3795 84.8088 48.4073 83.7055 48.1322C82.6022 47.8571 81.5908 47.3056 80.5934 46.7597L80.3096 46.7532C81.5837 42.5863 83.4727 38.4576 86.7098 35.5406Z" fill="#E6E6E6"/>
        <path d="M98.7773 32.8815C95.2003 33.3437 91.86 34.9213 89.2306 37.3901C88.6551 37.9115 88.1655 38.5204 87.7796 39.1943C87.4249 39.8629 87.2558 40.6143 87.2897 41.3704C87.3072 42.076 87.4068 42.7958 87.2524 43.4934C87.1681 43.8493 87.0095 44.1834 86.7871 44.4737C86.5646 44.764 86.2833 45.004 85.9615 45.178C85.1711 45.6323 84.2646 45.7755 83.3733 45.8848C82.3836 46.0061 81.3537 46.1164 80.497 46.6715C80.3932 46.7388 80.2949 46.5738 80.3986 46.5066C81.889 45.5408 83.7751 45.8922 85.3778 45.2477C86.1256 44.9469 86.7873 44.4189 87.0216 43.6207C87.2264 42.9227 87.1243 42.1804 87.1004 41.4661C87.0565 40.729 87.1937 39.9923 87.5002 39.3204C87.8505 38.6291 88.3159 38.0023 88.8765 37.4671C90.1193 36.242 91.547 35.2199 93.1073 34.4383C94.8832 33.5364 96.8002 32.9449 98.7755 32.6894C98.8978 32.6736 98.8988 32.8658 98.7773 32.8815H98.7773Z" fill="white"/>
        <path d="M90.0304 36.5452C89.6761 36.0478 89.5101 35.4407 89.5621 34.8322C89.6141 34.2238 89.8807 33.6536 90.3142 33.2236C90.4023 33.1368 90.5411 33.2696 90.453 33.3564C90.0485 33.7561 89.8002 34.2872 89.753 34.8539C89.7057 35.4206 89.8626 35.9855 90.1953 36.4467C90.2675 36.547 90.1022 36.6449 90.0304 36.5452V36.5452Z" fill="white"/>
        <path d="M87.2342 41.0137C88.4634 41.2315 89.7295 40.978 90.7801 40.3037C90.8842 40.2369 90.9825 40.4018 90.8786 40.4686C89.784 41.1683 88.4659 41.4294 87.1872 41.2C87.0654 41.178 87.113 40.9919 87.2342 41.0137V41.0137Z" fill="white"/>
        <path d="M94.899 33.7908C94.996 34.0118 95.1464 34.2052 95.3366 34.3538C95.5269 34.5023 95.751 34.6013 95.9889 34.6418C96.111 34.6622 96.0632 34.8482 95.942 34.828C95.6793 34.782 95.4319 34.6724 95.2213 34.5088C95.0108 34.3451 94.8435 34.1324 94.7341 33.8892C94.7219 33.8672 94.7185 33.8413 94.7247 33.8168C94.7309 33.7923 94.7461 33.7712 94.7673 33.7575C94.7892 33.7446 94.8154 33.7409 94.84 33.7471C94.8647 33.7533 94.8859 33.769 94.899 33.7908Z" fill="white"/>
        <path d="M103.248 46.8596C103.171 46.849 103.095 46.8385 103.017 46.8291C101.986 46.6923 100.947 46.6395 99.9077 46.6711C99.8274 46.6723 99.7459 46.6747 99.6658 46.6782C97.1635 46.7811 94.702 47.3476 92.4066 48.3491C91.4935 48.7484 90.6122 49.2167 89.7702 49.7497C88.6074 50.486 87.4052 51.3768 86.1053 51.677C85.97 51.7099 85.8329 51.7343 85.6946 51.7502L80.3239 47.0999C80.317 47.0832 80.309 47.0677 80.302 47.0509L80.0791 46.8751C80.1206 46.8446 80.1643 46.8138 80.2058 46.7833C80.2298 46.7655 80.255 46.7487 80.279 46.7309C80.2954 46.7193 80.3118 46.7078 80.326 46.6965C80.3314 46.6926 80.3369 46.6888 80.3413 46.6862C80.3554 46.6748 80.3697 46.6658 80.3828 46.6556C80.6266 46.483 80.8721 46.3117 81.1192 46.1419C81.1202 46.1407 81.1202 46.1407 81.1225 46.1405C82.9929 44.8284 85.0124 43.7429 87.1386 42.9066C87.2024 42.8825 87.2672 42.8571 87.3334 42.8351C88.291 42.4791 89.276 42.2019 90.2787 42.0064C90.8281 41.9011 91.3824 41.8236 91.9397 41.7744C93.3797 41.6499 94.8303 41.7526 96.2384 42.0789C99.0452 42.7298 101.613 44.2711 103.133 46.6748C103.172 46.7363 103.21 46.7969 103.248 46.8596Z" fill="#E6E6E6"/>
        <path d="M103.176 46.9174C100.042 45.1329 96.4252 44.3813 92.8395 44.7695C92.0661 44.8393 91.3085 45.0307 90.5947 45.3364C89.9089 45.6568 89.3215 46.1549 88.8933 46.779C88.4824 47.3529 88.1286 47.9876 87.5854 48.4517C87.3038 48.6851 86.976 48.8563 86.6236 48.9542C86.2712 49.052 85.902 49.0743 85.5404 49.0195C84.6358 48.9064 83.8258 48.4749 83.0483 48.0255C82.1851 47.5265 81.2963 46.9945 80.2781 46.922C80.1547 46.9132 80.1756 46.7223 80.2988 46.731C82.0703 46.8573 83.3646 48.2734 85.0324 48.7237C85.8105 48.9338 86.6568 48.9106 87.3244 48.4143C87.9081 47.9803 88.2736 47.3261 88.6846 46.7414C89.0933 46.1264 89.6464 45.6209 90.2956 45.2689C90.9915 44.9278 91.7404 44.7076 92.5103 44.6178C94.2402 44.3879 95.9955 44.4314 97.712 44.7467C99.6729 45.0958 101.56 45.7777 103.291 46.763C103.398 46.824 103.283 46.978 103.176 46.9174L103.176 46.9174Z" fill="white"/>
        <path d="M93.9864 44.5765C94.0029 43.966 94.2359 43.3813 94.6438 42.9268C95.0516 42.4723 95.6077 42.1776 96.2128 42.0952C96.3353 42.079 96.3663 42.2686 96.2437 42.2848C95.6801 42.3605 95.162 42.6351 94.7831 43.0591C94.4042 43.4831 94.1893 44.0286 94.1773 44.5971C94.1745 44.7207 93.9836 44.6993 93.9864 44.5765Z" fill="white"/>
        <path d="M89.0631 46.4608C89.9134 47.3748 91.077 47.9346 92.3217 48.0288C92.4451 48.038 92.4243 48.229 92.3011 48.2197C91.0059 48.1193 89.7962 47.5342 88.9135 46.5812C88.8294 46.4903 88.9795 46.3704 89.0631 46.4608Z" fill="white"/>
        <path d="M99.5323 45.3082C99.4767 45.5431 99.4803 45.7881 99.5427 46.0212C99.6052 46.2544 99.7246 46.4683 99.8902 46.6439C99.9754 46.7337 99.8252 46.8535 99.7406 46.7643C99.5585 46.5695 99.4269 46.333 99.3574 46.0756C99.2878 45.8182 99.2823 45.5476 99.3414 45.2876C99.3449 45.2626 99.3578 45.2399 99.3774 45.2241C99.3971 45.2083 99.422 45.2005 99.4472 45.2024C99.4724 45.2053 99.4956 45.218 99.5115 45.2378C99.5274 45.2576 99.5349 45.2829 99.5323 45.3082Z" fill="white"/>
        <path d="M8.91498 109.042C8.66286 109.987 8.00041 110.775 7.2006 111.349C7.0702 111.443 6.93632 111.53 6.8007 111.611C6.75897 111.636 6.71724 111.662 6.67377 111.684C6.62682 111.712 6.57988 111.738 6.53293 111.763H2.77208C2.70427 111.625 2.6382 111.486 2.57213 111.349C0.960333 107.962 -0.171574 104.307 0.0214239 100.584C0.0979931 99.1406 0.401344 97.7177 0.920342 96.3681C1.95314 93.6783 3.83792 91.3501 6.43035 90.1782C6.49468 90.1487 6.56249 90.1191 6.62856 90.0913C6.6077 90.1661 6.58683 90.2391 6.56597 90.3139C6.28784 91.3158 6.09131 92.3386 5.97828 93.3723C5.96785 93.4523 5.95916 93.5322 5.9522 93.614C5.70519 96.1069 5.92453 98.624 6.599 101.037C6.60074 101.042 6.60247 101.049 6.60422 101.054C6.75202 101.588 6.92357 102.113 7.11888 102.631C7.27189 103.04 7.43707 103.443 7.61789 103.839C8.3725 105.503 9.38443 107.277 8.91498 109.042Z" fill="#E6E6E6"/>
        <path d="M6.67502 90.1695C6.6385 90.2182 6.60198 90.2651 6.56548 90.3138C5.8018 91.3258 5.15331 92.4199 4.63202 93.5756C4.6042 93.633 4.57812 93.6904 4.55552 93.7495C3.84124 95.3634 3.38253 97.0786 3.19584 98.8335C3.19382 98.8456 3.19265 98.8578 3.19236 98.87C3.14889 99.2804 3.12281 99.6942 3.11238 100.108C3.07371 100.884 3.15762 101.661 3.36101 102.41C3.54647 103.022 3.87144 103.583 4.31036 104.048C4.35382 104.095 4.39729 104.142 4.44424 104.187C4.47901 104.224 4.51726 104.26 4.55378 104.295C4.905 104.63 5.28926 104.942 5.61961 105.302C5.77103 105.463 5.90777 105.638 6.02821 105.823C6.22043 106.134 6.3446 106.483 6.39255 106.845C6.44049 107.208 6.41114 107.577 6.30641 107.927C6.06994 108.807 5.5292 109.549 4.97629 110.257C4.69983 110.612 4.41468 110.97 4.16778 111.349C4.07737 111.484 3.99391 111.622 3.91742 111.763H3.69834C3.77136 111.622 3.85134 111.484 3.93828 111.349C4.57291 110.349 5.47531 109.49 5.94302 108.39C6.25947 107.647 6.3551 106.806 5.9552 106.077C5.83799 105.865 5.69617 105.668 5.53269 105.489C5.2145 105.129 4.83372 104.822 4.48772 104.497C4.40078 104.415 4.31558 104.331 4.23386 104.244C3.80061 103.804 3.46628 103.277 3.25322 102.697C3.01194 101.961 2.89787 101.189 2.91591 100.414C2.91591 99.9202 2.94199 99.4229 2.99068 98.9291C2.99589 98.8665 3.00285 98.8022 3.0098 98.7379C3.36538 95.6305 4.54627 92.675 6.42987 90.1782C6.46464 90.1295 6.50115 90.0825 6.53767 90.0356C6.61242 89.9382 6.74978 90.0738 6.67502 90.1695Z" fill="white"/>
        <path d="M3.08069 98.9456C2.47845 98.8444 1.93177 98.5325 1.53829 98.0655C1.14481 97.5984 0.930151 97.0068 0.932639 96.3961C0.932972 96.3712 0.942956 96.3474 0.960491 96.3297C0.978025 96.312 1.00174 96.3018 1.02664 96.3013C1.05153 96.3007 1.07567 96.3099 1.09396 96.3268C1.11225 96.3437 1.12327 96.367 1.12469 96.3919C1.12132 96.9606 1.32134 97.5117 1.68863 97.9458C2.05593 98.3799 2.56631 98.6685 3.12767 98.7593C3.24964 98.7792 3.20196 98.9653 3.08069 98.9456V98.9456Z" fill="white"/>
        <path d="M4.26228 104.083C5.28545 103.368 6.00147 102.293 6.26757 101.073C6.29384 100.953 6.48002 101 6.45379 101.12C6.17451 102.389 5.42711 103.506 4.36074 104.248C4.25905 104.318 4.16115 104.153 4.26229 104.083L4.26228 104.083Z" fill="white"/>
        <path d="M4.57494 93.5553C4.79981 93.643 5.04293 93.6735 5.28248 93.644C5.52203 93.6145 5.75051 93.526 5.94739 93.3864C6.04814 93.3145 6.14593 93.4798 6.04584 93.5513C5.8276 93.7045 5.57515 93.802 5.31056 93.8351C5.04596 93.8683 4.77727 93.8362 4.52796 93.7415C4.50371 93.7346 4.48302 93.7187 4.47009 93.697C4.45716 93.6753 4.45296 93.6496 4.45834 93.6249C4.46469 93.6003 4.4805 93.5792 4.50233 93.5662C4.52416 93.5531 4.55026 93.5492 4.57494 93.5553Z" fill="white"/>
        <path d="M19.7197 96.8929C19.6588 96.9398 19.5962 96.9868 19.5354 97.0355C18.7099 97.6672 17.9371 98.365 17.2246 99.1219C17.169 99.1793 17.1134 99.2384 17.0595 99.2975L17.0577 99.2993C15.3684 101.133 14.0326 103.264 13.1178 105.583L13.1126 105.599C13.1108 105.604 13.1091 105.607 13.1073 105.613C12.7447 106.541 12.4524 107.495 12.2328 108.468C12.0206 109.417 11.8468 110.434 11.5147 111.349C11.4642 111.489 11.4086 111.629 11.3495 111.762H3.61914C3.64522 111.625 3.67304 111.486 3.70086 111.349C4.0941 109.334 4.7087 107.369 5.53347 105.489C5.56129 105.427 5.58911 105.364 5.62041 105.301C6.04619 104.373 6.54685 103.48 7.11745 102.632C7.11744 102.632 7.11749 102.632 7.11757 102.632C7.11766 102.632 7.11778 102.631 7.11794 102.631C7.11811 102.631 7.1183 102.631 7.11852 102.631C7.11873 102.631 7.11896 102.631 7.11919 102.631C7.4325 102.168 7.76909 101.722 8.12765 101.294C9.05754 100.187 10.156 99.2343 11.3825 98.4699C11.3895 98.4647 11.3982 98.4612 11.4051 98.456C13.8463 96.9416 16.7395 96.22 19.5058 96.8442H19.5076C19.5789 96.8599 19.6484 96.8755 19.7197 96.8929Z" fill="#E6E6E6"/>
        <path d="M19.7101 96.9853C19.651 97.0009 19.5919 97.0183 19.5345 97.0357C18.3159 97.3839 17.1397 97.8661 16.0275 98.4736C15.9718 98.5032 15.9162 98.5345 15.8606 98.5658C14.3235 99.4236 12.9282 100.514 11.7241 101.798C11.7232 101.799 11.7226 101.8 11.7224 101.802C11.7085 101.815 11.6928 101.831 11.6807 101.845C11.4025 102.144 11.1347 102.455 10.8809 102.775C10.3843 103.372 9.98419 104.042 9.69505 104.763C9.47411 105.363 9.39613 106.006 9.46728 106.642C9.4725 106.706 9.48119 106.769 9.48988 106.833C9.49684 106.884 9.50379 106.934 9.51249 106.986C9.62724 107.684 9.82546 108.383 9.76982 109.094C9.73596 109.458 9.62535 109.811 9.44524 110.13C9.26513 110.448 9.01962 110.725 8.72485 110.942C8.52447 111.097 8.31029 111.233 8.085 111.349C7.76289 111.515 7.42727 111.653 7.08176 111.763H6.39844C6.49059 111.737 6.581 111.71 6.67316 111.684C7.00016 111.592 7.32126 111.48 7.63467 111.349C7.81371 111.274 7.98792 111.188 8.15628 111.092C8.85525 110.69 9.43773 110.074 9.55943 109.252C9.6655 108.532 9.46033 107.812 9.33862 107.108C9.31775 106.986 9.29863 106.866 9.28819 106.746C9.20517 106.137 9.2556 105.516 9.43598 104.928C9.68616 104.194 10.0602 103.508 10.5418 102.9C10.8397 102.505 11.1578 102.125 11.4946 101.762C11.5364 101.715 11.5798 101.668 11.625 101.621C12.8544 100.327 14.2739 99.2292 15.8345 98.3641H15.8362C16.9966 97.7181 18.2276 97.2082 19.5049 96.8444H19.5067C19.564 96.827 19.6231 96.8097 19.6805 96.794C19.8005 96.7627 19.8283 96.9522 19.7101 96.9853Z" fill="white"/>
        <path d="M11.557 101.827C11.137 101.384 10.8883 100.806 10.8553 100.196C10.8223 99.5861 11.0072 98.9844 11.3768 98.4983C11.4519 98.4002 11.6079 98.5124 11.5327 98.6106C11.1876 99.0626 11.0155 99.6231 11.0474 100.191C11.0793 100.759 11.3131 101.296 11.7066 101.707C11.792 101.796 11.6419 101.916 11.557 101.827H11.557Z" fill="white"/>
        <path d="M9.40726 106.641C10.6548 106.686 11.8734 106.259 12.8202 105.446C12.914 105.365 13.0342 105.515 12.9406 105.595C11.9538 106.44 10.6847 106.882 9.38659 106.832C9.26286 106.827 9.2842 106.636 9.40726 106.641Z" fill="white"/>
        <path d="M15.9958 98.4233C16.1225 98.6287 16.2983 98.7994 16.5073 98.9201C16.7163 99.0408 16.9521 99.1077 17.1933 99.1147C17.317 99.118 17.2956 99.3089 17.1726 99.3057C16.9061 99.2966 16.6459 99.2225 16.4147 99.0896C16.1834 98.9568 15.9882 98.7694 15.8461 98.5437C15.831 98.5236 15.824 98.4984 15.8267 98.4733C15.8295 98.4482 15.8416 98.4251 15.8608 98.4087C15.8807 98.3929 15.906 98.3855 15.9313 98.3883C15.9566 98.391 15.9797 98.4036 15.9958 98.4233Z" fill="white"/>
        <path d="M79.352 30.1023C79.1735 30.337 78.9458 30.5298 78.6848 30.6669C78.4238 30.8041 78.1359 30.8824 77.8414 30.8963C77.5469 30.9102 77.2529 30.8593 76.9802 30.7473C76.7074 30.6353 76.4626 30.4648 76.2629 30.2479L69.6904 33.1064L70.3306 29.4374L76.4738 27.2855C76.8604 26.9741 77.3478 26.8153 77.8436 26.8393C78.3394 26.8632 78.8093 27.0683 79.164 27.4155C79.5188 27.7627 79.7339 28.228 79.7685 28.7232C79.8032 29.2184 79.655 29.7091 79.352 30.1023Z" fill="#FFB8B8"/>
        <path d="M74.9659 31.2479L59.7004 38.0477L59.6676 38.036L42.2688 31.8359C40.9728 31.1586 39.9847 30.0115 39.5069 28.6295C39.0291 27.2474 39.0977 25.735 39.6986 24.4019C40.0317 23.6653 40.5171 23.0077 41.1226 22.4722C41.7282 21.9367 42.4404 21.5356 43.2122 21.2952C43.9839 21.0548 44.7979 20.9805 45.6005 21.0774C46.403 21.1742 47.176 21.4399 47.8684 21.857L60.8164 29.6568L73.3719 28.0295L74.9659 31.2479Z" fill="#E6E6E6"/>
        <path d="M150 111.903C150 111.93 149.995 111.957 149.984 111.982C149.974 112.008 149.959 112.03 149.94 112.05C149.92 112.069 149.898 112.084 149.872 112.095C149.847 112.105 149.82 112.11 149.793 112.11H0.212765C0.15789 112.11 0.105264 112.088 0.066461 112.049C0.0276582 112.011 0.00585938 111.958 0.00585938 111.903C0.00585938 111.848 0.0276582 111.796 0.066461 111.757C0.105264 111.718 0.15789 111.696 0.212765 111.696H149.793C149.82 111.696 149.847 111.702 149.872 111.712C149.898 111.722 149.92 111.737 149.94 111.757C149.959 111.776 149.974 111.799 149.984 111.824C149.995 111.849 150 111.876 150 111.903Z" fill="#CCCCCC"/>
        <path d="M54.4818 51.6048L39.0931 49.1433C38.6895 49.014 38.3186 48.799 38.006 48.5129C37.6934 48.2268 37.4464 47.8764 37.2819 47.4858C37.1175 47.0952 37.0395 46.6737 37.0533 46.2501C37.0672 45.8265 37.1725 45.411 37.3621 45.0319L38.06 43.636L37.7889 28.9705C37.7562 27.0629 38.2265 25.1803 39.1524 23.5121C40.0784 21.8439 41.4273 20.449 43.0635 19.4677L44.5642 18.5705L45.3226 16.6445L52.3158 16.8151L52.3362 19.341L54.8406 23.3345L54.8405 23.3511L54.6833 45.0875L53.9931 47.3307L55.0368 49.9398L54.4818 51.6048Z" fill="#E6E6E6"/>
        <path d="M49.4595 14.2495C52.9687 14.2495 55.8135 11.4047 55.8135 7.89551C55.8135 4.38629 52.9687 1.5415 49.4595 1.5415C45.9503 1.5415 43.1055 4.38629 43.1055 7.89551C43.1055 11.4047 45.9503 14.2495 49.4595 14.2495Z" fill="#FFB8B8"/>
        <path d="M42.8429 9.28074C42.6534 8.48234 42.7404 7.35885 42.8475 6.55495C43.1283 4.44739 44.2987 2.44379 46.0769 1.25698C46.4141 1.0009 46.8147 0.841682 47.2357 0.796491C47.6563 0.77893 48.1123 1.00412 48.2415 1.40487C48.3474 1.14038 48.5065 0.900409 48.7088 0.699778C48.9111 0.499148 49.1524 0.34211 49.4178 0.238361C49.9509 0.0341228 50.5242 -0.0431151 51.0923 0.0127693C52.1935 0.103537 53.2496 0.490737 54.1484 1.13328C55.0473 1.77581 55.7555 2.64972 56.1977 3.66225C56.3675 4.06543 56.8415 2.57621 57.0565 2.95715C57.2541 3.35312 57.5989 3.65602 58.017 3.80103C58.4383 3.9186 58.6095 5.65456 58.7753 5.24977C58.9039 5.54892 58.9548 5.87577 58.9231 6.19987C58.8914 6.52397 58.7782 6.83478 58.5941 7.10336C58.4099 7.37193 58.1608 7.58954 57.8699 7.73591C57.579 7.88228 57.2558 7.95266 56.9304 7.94048C56.5015 7.92444 56.0915 7.7667 55.6677 7.6988C54.1524 7.456 52.545 8.5548 52.221 10.0549C52.1051 9.62107 51.9198 9.20884 51.6724 8.83411C51.5468 8.64773 51.3785 8.49404 51.1815 8.38581C50.9845 8.27759 50.7646 8.21796 50.5399 8.21188C50.1088 8.22801 49.7298 8.50988 49.4501 8.83834C49.1703 9.16679 48.9603 9.54999 48.6785 9.87667C47.8516 10.8352 46.7333 13.0707 45.5549 12.9076C44.625 12.779 43.1017 10.3708 42.8429 9.28074Z" fill="#2F2E41"/>
        <path d="M87.8682 37.3029C87.9127 37.0132 87.8531 36.7172 87.7001 36.4672C87.5471 36.2173 87.3106 36.0296 87.0324 35.9374L69.9211 30.2384C69.757 30.1835 69.5833 30.1635 69.4111 30.1798L65.1222 30.5854L62.6613 30.8188L58.12 31.248C57.8458 31.2742 57.588 31.3907 57.3872 31.5792C57.1863 31.7677 57.0536 32.0175 57.01 32.2894L54.7043 46.6926C54.6606 46.9735 54.7141 47.2609 54.8559 47.5074C54.9976 47.7538 55.2192 47.9446 55.484 48.0481L72.7739 54.7221C72.855 54.7536 72.9393 54.7762 73.0254 54.7896C73.1506 54.8099 73.2781 54.8108 73.4037 54.7925L84.5759 53.1366C84.8394 53.0984 85.0836 52.9764 85.2722 52.7885C85.4609 52.6006 85.5839 52.3569 85.6231 52.0935L87.8682 37.3029Z" fill="white"/>
        <path d="M55.8766 47.0331L73.1665 53.7067C73.1917 53.7166 73.2191 53.7199 73.2459 53.716L84.4167 52.0603C84.4498 52.0558 84.4805 52.0406 84.5042 52.017C84.5279 51.9934 84.5432 51.9628 84.5479 51.9297L86.7943 37.1389C86.7994 37.1028 86.7918 37.066 86.7728 37.0349C86.7538 37.0038 86.7246 36.9802 86.6901 36.9683L86.5751 36.9293L69.5777 31.2705C69.57 31.2678 69.562 31.2658 69.5538 31.2648C69.5407 31.2623 69.5272 31.2616 69.5139 31.2627L59.053 32.2526L58.2229 32.3305C58.1888 32.3341 58.1569 32.3488 58.1319 32.3722C58.107 32.3957 58.0904 32.4267 58.0847 32.4605L55.7793 46.8631C55.7737 46.8982 55.7803 46.9343 55.798 46.9652C55.8157 46.9962 55.8434 47.0201 55.8766 47.0331Z" fill="#4D7267"/>
        <path d="M59.0527 32.2526L69.5136 31.2627C69.527 31.2616 69.5404 31.2623 69.5536 31.2648C69.5618 31.2658 69.5698 31.2678 69.5775 31.2705L86.5748 36.9293L82.0913 37.404L80.4133 37.5807L75.6387 38.0852C75.6248 38.0859 75.6108 38.0857 75.5968 38.0847C75.5883 38.0821 75.5799 38.0795 75.5696 38.0768L59.0527 32.2526Z" fill="#2F2E41"/>
        <path d="M55.4846 48.0486L72.7745 54.7222C72.8558 54.7535 72.9404 54.7757 73.0267 54.7882C73.1519 54.8089 73.2795 54.8105 73.4052 54.793L84.576 53.1373C84.8396 53.0989 85.0839 52.9767 85.2727 52.7887C85.4615 52.6007 85.5847 52.3569 85.6242 52.0934L87.8688 37.3025C87.902 37.0844 87.8769 36.8615 87.7961 36.6563C87.7847 36.629 87.7733 36.6017 87.7601 36.576C87.6711 36.3886 87.5356 36.2272 87.3665 36.107C87.2647 36.0339 87.1524 35.9766 87.0334 35.9372L87.0131 35.93L69.9229 30.2378C69.8531 30.2156 69.7818 30.1982 69.7095 30.186C69.6108 30.172 69.5107 30.1701 69.4114 30.1802L65.1232 30.5844L62.6625 30.8191L58.1204 31.248C57.9346 31.2653 57.7551 31.3246 57.5956 31.4214C57.5832 31.4274 57.5714 31.4344 57.5604 31.4425C57.5525 31.4477 57.5449 31.4534 57.5378 31.4596C57.3984 31.5547 57.2799 31.6772 57.1894 31.8196C57.0989 31.962 57.0384 32.1213 57.0115 32.2878L54.7042 46.692C54.6606 46.9732 54.7142 47.2608 54.8561 47.5074C54.9979 47.754 55.2196 47.9449 55.4846 48.0486ZM57.3176 32.338C57.3456 32.1654 57.4222 32.0043 57.5384 31.8736C57.5736 31.8315 57.6129 31.7931 57.6559 31.759C57.7732 31.6642 57.9119 31.5995 58.0599 31.5706C58.0891 31.5646 58.1187 31.5604 58.1484 31.5581L65.7961 30.8356L69.4413 30.4887C69.466 30.4859 69.4887 30.4863 69.5115 30.485C69.5667 30.4838 69.6219 30.4879 69.6763 30.4972C69.7263 30.5037 69.7756 30.5154 69.8232 30.5322L86.9336 36.2315C86.9472 36.2363 86.9589 36.2409 86.9724 36.2457C87.128 36.3036 87.2647 36.4031 87.3677 36.5332C87.449 36.6329 87.5084 36.7486 87.542 36.8728C87.5756 36.997 87.5826 37.1269 87.5625 37.254L85.316 52.0465C85.2865 52.2438 85.1944 52.4263 85.0533 52.5673C84.9121 52.7082 84.7294 52.8 84.5321 52.8292L73.3596 54.4847C73.1997 54.5076 73.0367 54.489 72.8862 54.4307L55.5961 47.7588C55.398 47.6807 55.2322 47.5376 55.1261 47.3529C55.0199 47.1682 54.9797 46.9529 55.0121 46.7424L57.3176 32.338Z" fill="#3F3D56"/>
        <path d="M57.5005 31.5382C57.5097 31.5119 57.5258 31.4887 57.5471 31.471C57.5542 31.4653 57.5617 31.4602 57.5695 31.4557C57.5768 31.4529 57.5842 31.4483 57.5915 31.4455C57.6262 31.4316 57.6648 31.4309 57.6999 31.4437L58.0598 31.5706L75.641 37.7726L79.7557 37.3378L82.0583 37.0949L86.9318 36.579L87.3676 36.5333L87.4524 36.5239C87.4889 36.5206 87.5254 36.5301 87.5556 36.5509C87.5859 36.5716 87.6079 36.6023 87.6179 36.6376C87.6203 36.6457 87.6218 36.654 87.6225 36.6625C87.6261 36.6959 87.6187 36.7297 87.6015 36.7586C87.5842 36.7875 87.558 36.81 87.5269 36.8227C87.5131 36.8285 87.4986 36.8324 87.4838 36.8343L86.891 36.8965L82.0917 37.4038L80.4137 37.5806L75.6391 38.085C75.6252 38.0857 75.6112 38.0855 75.5973 38.0845C75.5888 38.0819 75.5803 38.0794 75.5701 38.0767L57.6558 31.7591L57.595 31.7376C57.5811 31.733 57.5681 31.7258 57.5568 31.7164C57.5297 31.6966 57.5097 31.6686 57.4995 31.6365C57.4894 31.6045 57.4898 31.57 57.5005 31.5382Z" fill="#3F3D56"/>
        <path d="M73.0732 54.8336C73.0328 54.8271 72.9965 54.8049 72.9723 54.7718C72.9482 54.7387 72.938 54.6975 72.9441 54.657L75.4682 37.9071C75.4744 37.8664 75.4964 37.8297 75.5296 37.8053C75.5628 37.7808 75.6043 37.7705 75.645 37.7766L75.6464 37.7769C75.6869 37.7833 75.7231 37.8055 75.7473 37.8386C75.7715 37.8717 75.7816 37.913 75.7755 37.9535L73.2514 54.7033C73.2453 54.744 73.2232 54.7807 73.19 54.8051C73.1569 54.8296 73.1154 54.8399 73.0746 54.8338L73.0732 54.8336Z" fill="#3F3D56"/>
        <path d="M79.4717 53.771L77.793 53.9481L79.7566 37.3373C79.7566 37.3373 81.9986 36.9314 82.0585 37.0942C82.0954 37.1914 79.4877 53.6644 79.4717 53.771Z" fill="#3F3D56"/>
        <path d="M57.595 31.7373L57.5498 39.3124L70.9599 44.4221L75.7756 37.9534L57.595 31.7373Z" fill="#3F3D56"/>
        <path d="M87.3677 36.5336C87.2555 36.3927 87.1046 36.2877 86.9335 36.2317L69.8235 30.5325C69.7754 30.5164 69.7261 30.5044 69.676 30.4966C69.6215 30.4872 69.5661 30.4831 69.5107 30.4842L69.5385 30.3108L69.7098 30.1868L73.7729 27.2451L87.3419 31.4036L87.3655 36.1071L87.3677 36.5336Z" fill="#3F3D56"/>
        <path d="M58.2786 43.8981C58.2979 43.9 58.3169 43.904 58.3353 43.91L63.5851 45.6343C63.6508 45.6559 63.7053 45.7027 63.7365 45.7644C63.7677 45.8261 63.7732 45.8977 63.7516 45.9635C63.73 46.0292 63.6832 46.0836 63.6215 46.1149C63.5598 46.1461 63.4882 46.1515 63.4224 46.13L58.1726 44.4057C58.1116 44.3857 58.0602 44.3439 58.0281 44.2883C57.996 44.2328 57.9856 44.1673 57.9987 44.1045C58.0118 44.0417 58.0476 43.986 58.0992 43.9479C58.1508 43.9098 58.2147 43.8921 58.2786 43.8981H58.2786Z" fill="white"/>
        <path d="M79.4605 75.6754C80.6128 75.6754 81.547 74.7412 81.547 73.5889C81.547 72.4366 80.6128 71.5024 79.4605 71.5024C78.3082 71.5024 77.374 72.4366 77.374 73.5889C77.374 74.7412 78.3082 75.6754 79.4605 75.6754Z" fill="#F2F2F2"/>
        <path d="M26.2554 83.3258C27.4077 83.3258 28.3419 82.3916 28.3419 81.2393C28.3419 80.087 27.4077 79.1528 26.2554 79.1528C25.1031 79.1528 24.1689 80.087 24.1689 81.2393C24.1689 82.3916 25.1031 83.3258 26.2554 83.3258Z" fill="#F2F2F2"/>
        <path d="M69.7232 14.2984C70.8755 14.2984 71.8097 13.3643 71.8097 12.212C71.8097 11.0596 70.8755 10.1255 69.7232 10.1255C68.5709 10.1255 67.6367 11.0596 67.6367 12.212C67.6367 13.3643 68.5709 14.2984 69.7232 14.2984Z" fill="#F2F2F2"/>
        <path d="M73.1467 46.9664C72.8762 47.0839 72.5833 47.1407 72.2886 47.1327C71.9939 47.1248 71.7044 47.0523 71.4408 46.9204C71.1771 46.7885 70.9455 46.6004 70.7624 46.3693C70.5792 46.1382 70.449 45.8698 70.3808 45.5829L63.25 44.8625L65.6025 41.9751L72.0134 43.1019C72.5029 43.0193 73.0057 43.1192 73.4265 43.3825C73.8473 43.6459 74.1568 44.0545 74.2965 44.5308C74.4362 45.0072 74.3963 45.5182 74.1844 45.9671C73.9725 46.416 73.6032 46.7716 73.1467 46.9664Z" fill="#FFB8B8"/>
        <path d="M68.7603 45.8212L52.1193 44.288L52.0964 44.2617L39.9514 30.3456C39.1521 29.1211 38.8512 27.6373 39.1102 26.1981C39.3692 24.759 40.1686 23.4732 41.3446 22.6042C41.9954 22.1246 42.7403 21.7882 43.5304 21.6173C44.3205 21.4463 45.1378 21.4446 45.9286 21.6123C46.7194 21.78 47.4657 22.1133 48.1184 22.5902C48.7711 23.0671 49.3154 23.6768 49.7155 24.3793L57.1959 37.5143L68.9436 42.2344L68.7603 45.8212Z" fill="#E6E6E6"/>
        <path d="M110.529 19.0595C110.116 16.0282 109.597 12.7737 107.459 10.5855C106.781 9.89119 105.969 9.34144 105.072 8.96941C104.176 8.59737 103.213 8.41075 102.242 8.4208C101.272 8.43084 100.313 8.63735 99.4245 9.02786C98.5358 9.41838 97.7354 9.98482 97.0715 10.693C95.5153 12.3533 94.828 14.6846 94.7651 16.9593C94.7022 19.2341 95.2088 21.4836 95.7708 23.6888C98.7451 23.7482 101.697 23.1671 104.427 21.985C105.11 21.6887 105.781 21.3537 106.503 21.1701C107.224 20.9866 107.738 21.4485 108.409 21.7706L108.777 21.0655C109.079 21.6265 110.012 21.4602 110.351 20.9207C110.689 20.3813 110.615 19.6905 110.529 19.0595Z" fill="#2F2E41"/>
        <path d="M98.7392 35.9785L86.5898 36.2384C86.4032 35.9159 86.1269 35.6545 85.7945 35.4861C85.4621 35.3178 85.088 35.2497 84.7176 35.2901C84.3472 35.3305 83.9965 35.4776 83.7082 35.7137C83.42 35.9498 83.2065 36.2645 83.0939 36.6197C82.9812 36.9748 82.9742 37.3551 83.0737 37.7141C83.1732 38.0732 83.375 38.3956 83.6544 38.6421C83.9338 38.8886 84.2788 39.0486 84.6474 39.1026C85.0161 39.1566 85.3925 39.1023 85.7309 38.9462C87.3422 39.0378 99.9487 40.8271 100.701 39.674C101.464 38.5036 105.539 34.3733 105.539 34.3733L102.407 29.9146L98.7392 35.9785Z" fill="#9E616A"/>
        <path d="M101.699 22.0586C104.852 22.0586 107.408 19.5029 107.408 16.3503C107.408 13.1978 104.852 10.6421 101.699 10.6421C98.5469 10.6421 95.9912 13.1978 95.9912 16.3503C95.9912 19.5029 98.5469 22.0586 101.699 22.0586Z" fill="#9E616A"/>
        <path d="M110.842 27.3335C110.17 25.9948 109.843 24.3409 108.409 23.9068C107.44 23.6137 103.523 24.053 102.641 24.5477C101.173 25.3707 102.503 26.9128 101.637 28.3559C100.695 29.9247 98.1366 33.073 97.1951 34.6418C96.5478 35.7203 98.7281 38.8859 98.3781 40.094C98.0282 41.3022 98.0113 42.6582 98.6075 43.7657C99.1411 44.7571 98.3691 45.634 98.9058 46.6237C99.4638 47.6529 100.149 51.5013 99.6293 52.5506L99.2815 53.5938C102.732 53.7966 105.634 49.674 109.063 49.2398C109.915 49.1319 110.799 48.991 111.501 48.4966C112.535 47.7683 112.944 46.4467 113.199 45.2082C114.429 39.1538 113.599 32.8622 110.842 27.3335Z" fill="#3F3D56"/>
        <path d="M116.016 41.4696C115.535 40.1576 114.665 34.4214 114.665 34.4214L109.218 34.2617L111.881 40.8292L104.615 51.0012C104.615 51.0012 104.628 51.0236 104.653 51.0634C104.271 51.0021 103.879 51.0576 103.529 51.2225C103.179 51.3875 102.887 51.6542 102.691 51.9879C102.495 52.3216 102.405 52.7066 102.431 53.0926C102.458 53.4786 102.6 53.8476 102.84 54.1513C103.08 54.455 103.405 54.6793 103.775 54.7948C104.144 54.9103 104.54 54.9116 104.91 54.7986C105.28 54.6856 105.607 54.4636 105.849 54.1615C106.09 53.8594 106.235 53.4913 106.265 53.1055C106.291 53.1209 106.323 53.1264 106.353 53.1212C106.383 53.116 106.411 53.1003 106.431 53.0769C107.24 52.0623 116.496 42.7816 116.016 41.4696Z" fill="#9E616A"/>
        <path d="M116.57 37.8469C116.07 35.737 115.567 33.6156 114.724 31.6178C113.881 29.62 112.674 27.733 110.977 26.3833C110.435 25.9518 109.828 25.5709 109.148 25.4368C108.468 25.3026 107.702 25.4527 107.224 25.9551C106.46 26.759 106.69 28.0495 106.97 29.1227C107.797 32.2873 108.623 35.4518 109.45 38.6163C111.837 38.3633 114.224 38.1103 116.611 37.8572L116.57 37.8469Z" fill="#3F3D56"/>
        <path d="M108.695 17.1417C108.484 15.7608 108.265 14.3684 107.771 13.0681C107.277 11.7679 106.481 10.55 105.339 9.81346C103.531 8.64728 101.19 8.8722 99.1629 9.54301C97.5953 10.0618 96.0649 10.8503 94.9594 12.1179C93.8539 13.3856 93.233 15.1944 93.6442 16.8519C95.8065 16.341 97.9689 15.8301 100.131 15.3192L99.8945 15.4865C100.604 15.8405 101.224 16.3517 101.707 16.9811C102.19 17.6105 102.524 18.3417 102.682 19.1192C102.836 19.906 102.814 20.7175 102.617 21.4947C102.419 22.272 102.052 22.9956 101.54 23.6134C103.015 23.0902 104.49 22.5671 105.964 22.0439C106.875 21.721 107.849 21.349 108.389 20.5207C109.014 19.5605 108.869 18.2877 108.695 17.1417Z" fill="#2F2E41"/>
    </g>
    <defs>
        <clipPath id="clip0_1415_4252">
            <rect width="150" height="112.11" fill="white"/>
        </clipPath>
    </defs>
</svg>
