<svg width="30" height="30" viewBox="0 0 30 30" fill="none" xmlns="http://www.w3.org/2000/svg">
<path fill-rule="evenodd" clip-rule="evenodd" d="M13.7699 8.64073C13.0422 9.10558 12.1776 9.375 11.25 9.375C10.362 9.375 9.53165 9.12807 8.8239 8.69913C5.22321 11.5708 3.45422 16.1426 4.14293 20.6563C4.32159 20.6356 4.5033 20.625 4.6875 20.625C7.27633 20.625 9.375 22.7237 9.375 25.3125C9.375 25.4923 9.36487 25.6697 9.34517 25.8442C16.3133 26.1627 22.5816 21.5573 24.3924 14.8627C22.4427 14.3692 21 12.6031 21 10.5C21 8.01472 23.0147 6 25.5 6C27.9853 6 30 8.01472 30 10.5C30 12.6605 28.4774 14.4654 26.4467 14.9002C24.5247 22.9495 16.9673 28.479 8.65841 27.8045C7.82895 29.1235 6.36059 30 4.6875 30C2.09867 30 0 27.9013 0 25.3125C0 23.6265 0.890122 22.1484 2.22606 21.3225C1.29128 16.0774 3.24941 10.7162 7.36346 7.30893C6.85778 6.56068 6.5625 5.65858 6.5625 4.6875C6.5625 2.09867 8.66117 0 11.25 0C13.8388 0 15.9375 2.09867 15.9375 4.6875C15.9375 5.59943 15.6771 6.45054 15.2266 7.17053C16.1513 8.6579 16.703 10.3633 16.8122 12.1358C18.8578 12.6396 20.375 14.4863 20.375 16.6875C20.375 19.2763 18.2763 21.375 15.6875 21.375C13.0987 21.375 11 19.2763 11 16.6875C11 14.401 12.6372 12.4968 14.8032 12.0833C14.7035 10.8683 14.3476 9.69597 13.7699 8.64073Z" fill="#1E352F"/>
</svg>
